<svg width="23" height="23" viewBox="0 0 23 23" fill="none" xmlns="http://www.w3.org/2000/svg">
<path d="M9.20201 20.1499V13.179H6.53401C6.39549 13.179 6.26264 13.124 6.16469 13.026C6.06675 12.9281 6.01172 12.7952 6.01172 12.6567V9.89959C6.01172 9.76107 6.06675 9.62822 6.16469 9.53027C6.26264 9.43232 6.39549 9.37729 6.53401 9.37729H9.19147V6.70834C9.1279 6.07541 9.20367 5.43623 9.41347 4.83571C9.62326 4.23519 9.96199 3.68788 10.4059 3.23223C10.8497 2.77657 11.388 2.42363 11.9828 2.19818C12.5776 1.97273 13.2146 1.88024 13.849 1.92721H16.0723C16.2121 1.92694 16.3465 1.98165 16.4463 2.07953C16.5462 2.17742 16.6036 2.31065 16.6061 2.45046V4.78496C16.6031 4.92453 16.5455 5.05736 16.4457 5.155C16.346 5.25263 16.2119 5.30729 16.0723 5.30725H14.6827C13.182 5.30725 12.8935 6.01834 12.8935 7.06388V9.37634H16.4614C16.5355 9.37388 16.6093 9.3876 16.6776 9.41656C16.746 9.44552 16.8071 9.489 16.8569 9.544C16.9067 9.599 16.944 9.66419 16.966 9.73503C16.9881 9.80587 16.9944 9.88066 16.9846 9.95421L16.6617 12.7219C16.6455 12.8486 16.5834 12.9651 16.4872 13.0491C16.3909 13.1332 16.2672 13.1791 16.1394 13.178H12.9156V20.149C12.9174 20.2721 12.8944 20.3944 12.8481 20.5085C12.8018 20.6226 12.733 20.7263 12.6459 20.8134C12.5587 20.9004 12.455 20.9691 12.3408 21.0153C12.2266 21.0615 12.1043 21.0843 11.9812 21.0824H10.1249C10.0027 21.0828 9.88164 21.0588 9.7688 21.0119C9.65597 20.965 9.5536 20.8961 9.46769 20.8092C9.38178 20.7223 9.31404 20.6192 9.26842 20.5058C9.2228 20.3925 9.20023 20.2721 9.20201 20.1499Z" fill="white"/>
</svg>
