<svg width="39" height="35" viewBox="0 0 39 35" fill="none" xmlns="http://www.w3.org/2000/svg">
<path d="M25.7538 16.3333C25.4184 15.8958 25.0101 15.5167 24.6309 15.1375C23.6538 14.2625 22.5455 13.6354 21.6121 12.7167C19.4392 10.5875 18.958 7.07292 20.3434 4.375C18.958 4.71042 17.7476 5.46875 16.7121 6.3C12.9351 9.33333 11.4476 14.6854 13.2267 19.2792C13.2851 19.425 13.3434 19.5708 13.3434 19.7604C13.3434 20.0813 13.1246 20.3729 12.833 20.4896C12.4976 20.6354 12.1476 20.5479 11.8705 20.3146C11.7877 20.2452 11.7185 20.1612 11.6663 20.0667C10.0184 17.9813 9.75589 14.9917 10.8642 12.6C8.42881 14.5833 7.10173 17.9375 7.29131 21.1021C7.37881 21.8313 7.46631 22.5604 7.71423 23.2896C7.9184 24.1646 8.31215 25.0396 8.74965 25.8125C10.3246 28.3354 13.0517 30.1438 15.983 30.5083C19.1038 30.9021 22.4434 30.3333 24.8351 28.175C27.5038 25.7542 28.4371 21.875 27.0663 18.55L26.8767 18.1708C26.5705 17.5 25.7538 16.3333 25.7538 16.3333ZM21.1455 25.5208C20.7371 25.8708 20.0663 26.25 19.5413 26.3958C17.908 26.9792 16.2746 26.1625 15.3121 25.2C17.0476 24.7917 18.083 23.5083 18.3892 22.2104C18.6371 21.0437 18.1705 20.0813 17.9809 18.9583C17.8059 17.8792 17.8351 16.9604 18.2288 15.9542C18.5059 16.5083 18.7976 17.0625 19.1476 17.5C20.2705 18.9583 22.0351 19.6 22.4142 21.5833C22.4726 21.7875 22.5017 21.9917 22.5017 22.2104C22.5455 23.4062 22.0205 24.7188 21.1455 25.5208Z" fill="#C0823A" fill-opacity="0.95"/>
</svg>
