<svg width="25" height="25" viewBox="0 0 25 25" fill="none" xmlns="http://www.w3.org/2000/svg">
<path d="M12.4997 9.24561C10.7078 9.24561 9.24536 10.708 9.24536 12.5C9.24536 14.292 10.7078 15.7544 12.4997 15.7544C14.2917 15.7544 15.7541 14.292 15.7541 12.5C15.7541 10.708 14.2917 9.24561 12.4997 9.24561ZM22.2605 12.5C22.2605 11.1523 22.2727 9.8169 22.197 8.47168C22.1213 6.90918 21.7649 5.52246 20.6223 4.37988C19.4773 3.23486 18.093 2.88086 16.5305 2.80518C15.1829 2.72949 13.8474 2.7417 12.5022 2.7417C11.1545 2.7417 9.81909 2.72949 8.47387 2.80518C6.91137 2.88086 5.52465 3.23731 4.38207 4.37988C3.23705 5.5249 2.88305 6.90918 2.80737 8.47168C2.73168 9.81934 2.74389 11.1548 2.74389 12.5C2.74389 13.8452 2.73168 15.1831 2.80737 16.5283C2.88305 18.0908 3.2395 19.4775 4.38207 20.6201C5.52709 21.7651 6.91137 22.1191 8.47387 22.1948C9.82153 22.2705 11.157 22.2583 12.5022 22.2583C13.8498 22.2583 15.1853 22.2705 16.5305 22.1948C18.093 22.1191 19.4797 21.7627 20.6223 20.6201C21.7673 19.4751 22.1213 18.0908 22.197 16.5283C22.2751 15.1831 22.2605 13.8477 22.2605 12.5ZM12.4997 17.5073C9.72875 17.5073 7.49243 15.271 7.49243 12.5C7.49243 9.729 9.72875 7.49268 12.4997 7.49268C15.2707 7.49268 17.5071 9.729 17.5071 12.5C17.5071 15.271 15.2707 17.5073 12.4997 17.5073ZM17.7122 8.45703C17.0652 8.45703 16.5427 7.93457 16.5427 7.2876C16.5427 6.64063 17.0652 6.11817 17.7122 6.11817C18.3591 6.11817 18.8816 6.64063 18.8816 7.2876C18.8818 7.44123 18.8517 7.59338 18.793 7.73535C18.7343 7.87732 18.6481 8.00631 18.5395 8.11494C18.4309 8.22357 18.3019 8.30971 18.1599 8.36841C18.0179 8.42711 17.8658 8.45723 17.7122 8.45703Z" fill="white"/>
</svg>
