<svg width="47" height="47" viewBox="0 0 47 47" fill="none" xmlns="http://www.w3.org/2000/svg">
<path fill-rule="evenodd" clip-rule="evenodd" d="M9.79199 39.1666C8.23385 39.1666 6.73952 38.5476 5.63774 37.4458C4.53596 36.3441 3.91699 34.8497 3.91699 33.2916V13.7083C3.91699 12.1501 4.53596 10.6558 5.63774 9.554C6.73952 8.45222 8.23385 7.83325 9.79199 7.83325H37.2087C38.7668 7.83325 40.2611 8.45222 41.3629 9.554C42.4647 10.6558 43.0837 12.1501 43.0837 13.7083V33.2916C43.0837 34.8497 42.4647 36.3441 41.3629 37.4458C40.2611 38.5476 38.7668 39.1666 37.2087 39.1666H9.79199ZM14.9326 16.0974C14.7331 15.9271 14.5015 15.7985 14.2513 15.7195C14.0012 15.6404 13.7378 15.6124 13.4766 15.637C13.2155 15.6617 12.9619 15.7386 12.7311 15.8632C12.5002 15.9878 12.2967 16.1574 12.1327 16.3621C11.9687 16.5668 11.8474 16.8024 11.7762 17.0549C11.705 17.3073 11.6852 17.5715 11.718 17.8318C11.7508 18.092 11.8356 18.3431 11.9673 18.5699C12.099 18.7968 12.275 18.9949 12.4847 19.1524L19.8285 25.0294C20.8705 25.8636 22.1655 26.3182 23.5003 26.3182C24.8352 26.3182 26.1302 25.8636 27.1722 25.0294L34.5159 19.1544C34.7168 18.9936 34.884 18.7949 35.0081 18.5696C35.1321 18.3442 35.2106 18.0966 35.239 17.8409C35.2673 17.5853 35.2451 17.3265 35.1734 17.0794C35.1018 16.8324 34.9822 16.6018 34.8214 16.401C34.6607 16.2001 34.462 16.0329 34.2366 15.9088C34.0113 15.7848 33.7637 15.7063 33.508 15.678C33.2523 15.6496 32.9936 15.6719 32.7465 15.7435C32.4994 15.8151 32.2689 15.9347 32.068 16.0955L24.7243 21.9705C24.3769 22.2486 23.9453 22.4001 23.5003 22.4001C23.0554 22.4001 22.6237 22.2486 22.2764 21.9705L14.9326 16.0974Z" fill="white"/>
</svg>
