<svg width="35" height="35" viewBox="0 0 35 35" fill="none" xmlns="http://www.w3.org/2000/svg">
<path fill-rule="evenodd" clip-rule="evenodd" d="M24.1384 32.2774C22.0384 32.2001 16.0869 31.3776 9.854 25.1461C3.62254 18.9132 2.8015 12.9632 2.72275 10.8618C2.60608 7.65927 5.059 4.54864 7.89254 3.33385C8.23376 3.18651 8.60742 3.13041 8.97686 3.17107C9.34629 3.21172 9.69882 3.34772 9.99983 3.56573C12.3332 5.26614 13.9432 7.83864 15.3257 9.86135C15.6299 10.3057 15.7599 10.8465 15.6911 11.3806C15.6222 11.9148 15.3593 12.4049 14.9523 12.7576L12.1071 14.8707C11.9697 14.97 11.8729 15.1158 11.8348 15.281C11.7967 15.4462 11.8199 15.6196 11.9 15.7691C12.5446 16.9401 13.6909 18.6843 15.0034 19.9968C16.3159 21.3093 18.1432 22.5314 19.3959 23.2489C19.5529 23.337 19.7378 23.3617 19.9125 23.3177C20.0872 23.2738 20.2384 23.1646 20.335 23.0126L22.1871 20.1936C22.5276 19.7413 23.0299 19.4383 23.5888 19.3481C24.1477 19.2578 24.7199 19.3873 25.1855 19.7095C27.2373 21.1299 29.6319 22.7122 31.3848 24.9566C31.6205 25.2598 31.7705 25.6207 31.819 26.0017C31.8674 26.3826 31.8127 26.7696 31.6605 27.1222C30.4398 29.9703 27.3511 32.3955 24.1384 32.2774Z" fill="white"/>
</svg>
