<svg width="20" height="20" viewBox="0 0 20 20" fill="none" xmlns="http://www.w3.org/2000/svg">
<g clip-path="url(#clip0_1_110)">
<path fill-rule="evenodd" clip-rule="evenodd" d="M13.0887 0.625C12.5295 0.625 12.0545 0.799583 11.6983 1.11208C11.3475 1.41958 11.1495 1.82667 11.0762 2.23208C10.9925 2.69333 11.0658 3.23583 11.3312 3.67042C11.1392 3.83681 10.9824 4.03988 10.8699 4.26769C10.7574 4.4955 10.6916 4.74348 10.6762 4.99708C10.6402 5.55287 10.6231 6.10972 10.625 6.66667C10.625 7.35708 10.647 7.90833 10.6762 8.33625C10.7445 9.33375 11.5225 10.0696 12.4962 10.1346C12.9675 10.1663 13.5891 10.1942 14.375 10.2046V5.01792C14.375 4.85216 14.4408 4.69318 14.558 4.57597C14.6752 4.45876 14.8342 4.39292 15 4.39292C15.1657 4.39292 15.3247 4.45876 15.4419 4.57597C15.5591 4.69318 15.625 4.85216 15.625 5.01792V10.2046C16.2517 10.1981 16.8782 10.1747 17.5037 10.1346C18.4775 10.0696 19.2554 9.33375 19.3237 8.33625C19.3529 7.90875 19.375 7.35708 19.375 6.66667C19.375 5.97625 19.3529 5.425 19.3237 4.99708C19.3083 4.74348 19.2425 4.4955 19.13 4.26769C19.0175 4.03988 18.8607 3.83681 18.6687 3.67042C18.9341 3.23583 19.0075 2.69333 18.9237 2.23208C18.8504 1.82667 18.6525 1.41958 18.3016 1.11208C17.9454 0.799583 17.4704 0.625 16.9112 0.625C16.0054 0.625 15.387 1.0875 15 1.64583C14.6129 1.0875 13.9945 0.625 13.0887 0.625ZM17.4387 3.19417L17.4287 3.17125C17.5795 3.10958 17.7641 2.84125 17.6941 2.45542C17.6637 2.28792 17.5875 2.14833 17.4775 2.05208C17.3733 1.96083 17.2012 1.875 16.9108 1.875C16.455 1.875 16.1583 2.10958 15.9429 2.49333C15.8341 2.6936 15.7532 2.90781 15.7025 3.13C16.2815 3.13703 16.8607 3.15842 17.4387 3.19417ZM14.297 3.13C14.2464 2.90783 14.1657 2.69363 14.057 2.49333C13.842 2.11 13.5445 1.875 13.0887 1.875C12.7983 1.875 12.6262 1.96083 12.522 2.05208C12.4125 2.14792 12.3362 2.28792 12.3058 2.45542C12.2358 2.84125 12.42 3.10958 12.5712 3.17125L12.5616 3.19417C13.1396 3.15842 13.718 3.13703 14.297 3.13ZM1.37621 10.78C1.15857 10.8479 0.96581 10.9786 0.822092 11.1556C0.678375 11.3326 0.590087 11.548 0.568293 11.775C0.500376 12.46 0.416626 13.5217 0.416626 14.5833C0.416626 15.5692 0.489126 16.5554 0.554126 17.2396C0.579229 17.502 0.691114 17.7485 0.872079 17.9402C1.05304 18.1319 1.29276 18.2578 1.55329 18.2979C3.31746 18.5817 7.30246 19.1667 10.1183 19.1667C12.25 19.1667 16.515 17.7317 18.5091 17.0163C19.1587 16.7829 19.6362 16.1467 19.4254 15.49C19.1425 14.6108 18.542 14.2775 18.127 14.1512C17.8437 14.065 17.5466 14.1 17.255 14.1504C15.8904 14.3875 11.6933 15.0925 10.1183 15.0925C9.37538 15.0925 8.36121 14.9567 7.76746 14.8663C7.63072 14.8446 7.50624 14.7748 7.41658 14.6693C7.32692 14.5638 7.27801 14.4297 7.27871 14.2912C7.27871 13.9454 7.57371 13.6737 7.91829 13.7017L11.1329 13.9642C11.8608 14.0233 12.5012 13.4404 12.3345 12.7292C12.2454 12.3471 12.1262 12.0292 12.0079 11.775C11.7604 11.2446 11.2441 10.9267 10.677 10.7808C9.50621 10.4796 7.33454 10 5.38538 10C4.08746 10 2.34371 10.4792 1.37621 10.78Z" fill="#682718"/>
</g>
<defs>
<clipPath id="clip0_1_110">
<rect width="20" height="20" fill="white"/>
</clipPath>
</defs>
</svg>
