<svg width="23" height="23" viewBox="0 0 23 23" fill="none" xmlns="http://www.w3.org/2000/svg">
<path d="M21 7.62963V11.1481C21 11.3348 20.9271 11.5138 20.7972 11.6457C20.6674 11.7777 20.4913 11.8519 20.3077 11.8519C18.8615 11.8553 17.436 11.5018 16.1538 10.8218V14.3148C16.1538 16.0878 15.4609 17.7882 14.2275 19.042C12.9941 20.2957 11.3212 21 9.57692 21C7.83261 21 6.15975 20.2957 4.92634 19.042C3.69292 17.7882 3 16.0878 3 14.3148C3 11.069 5.32875 8.19963 8.41731 7.64019C8.51694 7.62218 8.61925 7.6266 8.71703 7.65314C8.8148 7.67967 8.90567 7.72766 8.98322 7.79375C9.06077 7.85983 9.12313 7.94239 9.1659 8.03562C9.20867 8.12885 9.23081 8.23047 9.23077 8.33333V12.0885C9.23081 12.2217 9.19367 12.3521 9.12367 12.4647C9.05366 12.5773 8.95366 12.6673 8.83529 12.7244C8.55546 12.8593 8.31636 13.0681 8.14294 13.3289C7.96952 13.5897 7.86812 13.8931 7.84934 14.2073C7.83056 14.5215 7.89507 14.8351 8.03614 15.1154C8.17722 15.3956 8.38969 15.6323 8.6514 15.8006C8.9131 15.9689 9.21445 16.0628 9.52402 16.0724C9.83358 16.0821 10.14 16.0071 10.4113 15.8553C10.6827 15.7035 10.909 15.4805 11.0666 15.2096C11.2243 14.9386 11.3076 14.6296 11.3077 14.3148V2.7037C11.3077 2.51707 11.3806 2.33808 11.5105 2.20611C11.6403 2.07414 11.8164 2 12 2H15.4615C15.6452 2 15.8212 2.07414 15.9511 2.20611C16.0809 2.33808 16.1538 2.51707 16.1538 2.7037C16.155 3.82315 16.593 4.89641 17.3717 5.68798C18.1505 6.47955 19.2064 6.92476 20.3077 6.92593C20.4913 6.92593 20.6674 7.00007 20.7972 7.13204C20.9271 7.26401 21 7.443 21 7.62963Z" fill="white"/>
</svg>
