<svg width="35" height="35" viewBox="0 0 35 35" fill="none" xmlns="http://www.w3.org/2000/svg">
<path fill-rule="evenodd" clip-rule="evenodd" d="M17.5 1.823C26.1581 1.823 33.1771 8.84196 33.1771 17.5001C33.1771 26.1582 26.1581 33.1772 17.5 33.1772C14.7875 33.1772 12.2354 32.4874 10.0085 31.274L3.09604 32.4334C2.92566 32.4618 2.75097 32.4495 2.58628 32.3974C2.42158 32.3454 2.27156 32.255 2.1485 32.1338C2.02543 32.0126 1.93283 31.864 1.87827 31.7001C1.8237 31.5362 1.80873 31.3617 1.83458 31.1909L3.00125 23.4763C2.21969 21.581 1.81928 19.5502 1.82291 17.5001C1.82291 8.84196 8.84187 1.823 17.5 1.823ZM11.5835 9.77091C10.5117 9.77091 9.62354 10.6751 9.78979 11.7922C10.1048 13.8863 11.0352 17.7451 13.8031 20.5334C16.6965 23.4486 20.8367 24.6955 23.0781 25.187C24.239 25.4422 25.2292 24.5234 25.2292 23.3903V20.7303C25.2292 20.6419 25.2025 20.5556 25.1525 20.4827C25.1025 20.4098 25.0316 20.3538 24.9492 20.322L22.0908 19.2238C22.0137 19.1943 21.9298 19.1872 21.8487 19.2034L18.9656 19.7663C17.1062 18.8038 15.9804 17.7247 15.3052 16.0986L15.8477 13.1601C15.8622 13.0819 15.8552 13.0012 15.8273 12.9267L14.7554 10.0553C14.7243 9.97202 14.6686 9.9002 14.5956 9.8494C14.5227 9.79859 14.436 9.77122 14.3471 9.77091H11.5835Z" fill="white"/>
</svg>
